<svg xmlns="http://www.w3.org/2000/svg" viewBox="-469 480.4 60.9 41.1" enable-background="new -469 480.4 60.9 41.1"><style type="text/css">.st0{fill:#7446E1;}</style><title>Logo</title><desc>Created with Sketch.</desc><path class="st0" d="M-430.3 480.4c-3.2 0-5.7 2.6-5.7 5.7v29.7c0 3.2 2.6 5.7 5.7 5.7 3.2 0 5.7-2.6 5.7-5.7v-29.7c0-3.1-2.5-5.7-5.7-5.7zm-16.5 0c-3.2 0-5.7 2.6-5.7 5.7v9.1c0 3.2 2.6 5.7 5.7 5.7 3.2 0 5.7-2.6 5.7-5.7v-9.1c0-3.1-2.5-5.7-5.7-5.7zm-16.5 0c-3.2 0-5.7 2.6-5.7 5.7v29.7c0 3.2 2.6 5.7 5.7 5.7 3.2 0 5.7-2.6 5.7-5.7v-29.7c0-3.1-2.5-5.7-5.7-5.7zm49.5 23.1c-3.2 0-5.7 2.6-5.7 5.7v6.2c0 3.2 2.6 5.7 5.7 5.7 3.2 0 5.7-2.6 5.7-5.7v-6.2c0-3.1-2.5-5.7-5.7-5.7zm0-23.1c-3.2 0-5.7 2.6-5.7 5.7v6.6c0 3.2 2.6 5.7 5.7 5.7 3.2 0 5.7-2.6 5.7-5.7v-6.6c0-3.1-2.5-5.7-5.7-5.7z"/></svg>