<svg xmlns="http://www.w3.org/2000/svg" viewBox="-493.5 463.9 110 74.2" enable-background="new -493.5 463.9 110 74.2"><style type="text/css">.st0{fill:#FFFFFF;}</style><title>Logo</title><desc>Created with Sketch.</desc><path class="st0" d="M-423.6 463.9c-5.7 0-10.3 4.6-10.3 10.3v53.6c0 5.7 4.6 10.3 10.3 10.3 5.7 0 10.3-4.6 10.3-10.3v-53.6c0-5.7-4.7-10.3-10.3-10.3zM-453.4 463.9c-5.7 0-10.3 4.6-10.3 10.3v16.5c0 5.7 4.6 10.3 10.3 10.3 5.7 0 10.3-4.6 10.3-10.3v-16.5c0-5.7-4.6-10.3-10.3-10.3zM-483.2 463.9c-5.7 0-10.3 4.6-10.3 10.3v53.6c0 5.7 4.6 10.3 10.3 10.3 5.7 0 10.3-4.6 10.3-10.3v-53.6c0-5.7-4.6-10.3-10.3-10.3zM-393.8 505.5c-5.7 0-10.3 4.6-10.3 10.3v11.3c0 5.7 4.6 10.3 10.3 10.3 5.7 0 10.3-4.6 10.3-10.3v-11.3c0-5.6-4.7-10.3-10.3-10.3zM-393.8 463.9c-5.7 0-10.3 4.6-10.3 10.3v11.9c0 5.7 4.6 10.3 10.3 10.3 5.7 0 10.3-4.6 10.3-10.3v-11.9c0-5.7-4.7-10.3-10.3-10.3z"/></svg>