<svg xmlns="http://www.w3.org/2000/svg" viewBox="0 0 36 28" enable-background="new 0 0 36 28"><style type="text/css">.st0{fill:#7446E1;}</style><path class="st0" d="M34 4h-8L22.6.6c-.4-.4-.9-.6-1.4-.6h-6.3c-.5 0-1 .2-1.4.6L10 4H2C.9 4 0 4.9 0 6v20c0 1.1.9 2 2 2h4c1.1 0 2-.9 2-2s-.9-2-2-2H5c-.6 0-1-.4-1-1V9c0-.6.4-1 1-1h6.7l1.2-1.2L15.7 4h4.7l2.8 2.8L24.3 8H31c.6 0 1 .4 1 1v14c0 .6-.4 1-1 1h-1c-1.1 0-2 .9-2 2s.9 2 2 2h4c1.1 0 2-.9 2-2V6c0-1.1-.9-2-2-2zM18 10c-4.4 0-8 3.6-8 8s3.6 8 8 8 8-3.6 8-8-3.6-8-8-8zm0 12c-2.2 0-4-1.8-4-4s1.8-4 4-4 4 1.8 4 4-1.8 4-4 4z"/></svg>