<?xml version="1.0" encoding="utf-8"?>
<!-- Generator: Adobe Illustrator 19.1.0, SVG Export Plug-In . SVG Version: 6.00 Build 0)  -->
<svg version="1.1" xmlns="http://www.w3.org/2000/svg" xmlns:xlink="http://www.w3.org/1999/xlink" x="0px" y="0px"
	 viewBox="0 0 16 16" style="enable-background:new 0 0 16 16;" xml:space="preserve">
<style type="text/css">
	.st0{display:none;}
	.st1{display:inline;}
	.st2{fill:#140A0A;}
	.st3{fill-rule:evenodd;clip-rule:evenodd;fill:#140A0A;}
	.st4{display:inline;fill:#010202;}
	.st5{fill:#010202;}
	.st6{display:inline;fill-rule:evenodd;clip-rule:evenodd;fill:#010202;}
	.st7{display:inline;fill:#140A0A;}
	.st8{display:inline;fill:#E22D2E;}
	.st9{fill:#FFFFFF;}
	.st10{display:inline;fill:none;stroke:#000000;stroke-width:4;stroke-miterlimit:10;}
	.st11{fill:#0C070E;}
	.st12{display:inline;fill:#0C070E;}
</style>
<g id="Lager_2" class="st0">
	<g class="st1">
		<path class="st2" d="M22,10L22,10c-1.1,0-2,0.9-2,2v5c0,0.6-0.4,1-1,1H-3c-0.6,0-1-0.4-1-1V-5c0-0.6,0.4-1,1-1h9c1.1,0,2-0.9,2-2
			v0c0-1.1-0.9-2-2-2H-6c-1.1,0-2,0.9-2,2v28c0,1.1,0.9,2,2,2h28c1.1,0,2-0.9,2-2l0,0h0v-8C24,10.9,23.1,10,22,10z"/>
		<path class="st2" d="M16.9-4.3C11.3-3.9,6.9-2,3.9,1.3C1,4.6,0.2,8.2,0.1,10.6C0,11.9,0.9,13.1,2.2,13l0.1,0
			c0.9-0.1,1.7-0.9,1.7-1.8c0.1-1.8,0.7-4.8,2.9-7.3C9.1,1.5,12.5,0.1,17-0.3V0h-0.1l0,0.3l-2.3,2.3c-0.8,0.8-0.8,2.1,0,2.8
			c0.8,0.8,2,0.8,2.8,0l6-6.1C23.8-1,24-1.5,24-2.1c0-0.5-0.2-1-0.6-1.4l-6-5.9c-0.8-0.8-2-0.8-2.8,0c-0.8,0.8-0.8,2.1,0,2.8
			L16.9-4.3z"/>
	</g>
</g>
<g id="Lager_3" class="st0">
	<g class="st1">
		<path class="st3" d="M20,4h-4c-1.1,0-2,0.9-2,2v0c0,1.1,0.9,2,2,2h1c0.6,0,1,0.4,1,1v3v5c0,0.6-0.4,1-1,1H-1c-0.6,0-1-0.4-1-1V9
			c0-0.6,0.4-1,1-1h1c1.1,0,2-0.9,2-2v0c0-1.1-0.9-2-2-2h-4c-1.1,0-2,0.9-2,2v14c0,1.1,0.9,2,2,2h24c1.1,0,2-0.9,2-2v-8V6
			C22,4.9,21.1,4,20,4z"/>
		<path class="st3" d="M3.4-0.6L6-3.2V-1v14c0,0.6,0.4,1,1,1h2c0.6,0,1-0.4,1-1V-1v-1.9l0.3,0l2.3,2.3c0.8,0.8,2.1,0.8,2.8,0
			c0.8-0.8,0.8-2,0-2.8l-6.1-6C9-9.8,8.5-10,7.9-10c-0.5,0-1,0.2-1.4,0.6l-5.9,6c-0.8,0.8-0.8,2,0,2.8C1.4,0.2,2.6,0.2,3.4-0.6z"/>
	</g>
</g>
<g id="Lager_3_kopia" class="st0">
	<g class="st1">
		<path class="st2" d="M0.6,4.6c-0.8,0.8-0.8,2,0,2.8l6.1,6C7,13.8,7.5,14,8.1,14c0.5,0,1-0.2,1.4-0.6l5.9-6c0.8-0.8,0.8-2,0-2.8
			c-0.8-0.8-2.1-0.8-2.8,0L10,7.2V5V-9c0-0.6-0.4-1-1-1H7c-0.6,0-1,0.4-1,1V5v1.9l-0.3,0L3.4,4.6C2.6,3.8,1.4,3.8,0.6,4.6z"/>
		<path class="st2" d="M22-6h-6c-1.1,0-2,0.9-2,2v0c0,1.1,0.9,2,2,2h3c0.6,0,1,0.4,1,1v18c0,0.6-0.4,1-1,1H8H-3c-0.6,0-1-0.4-1-1V-1
			c0-0.6,0.4-1,1-1h3c1.1,0,2-0.9,2-2v0c0-1.1-0.9-2-2-2h-6c-1.1,0-2,0.9-2,2v24c0,1.1,0.9,2,2,2H8h14c1.1,0,2-0.9,2-2V-4
			C24-5.1,23.1-6,22-6z"/>
	</g>
</g>
<g id="Lager_4" class="st0">
	<path class="st4" d="M17.4,3.3L17.4,3.3C17.8,2.3,18,1.2,18,0c0-5.5-4.5-10-10-10S-2-5.5-2,0c0,1.2,0.2,2.3,0.6,3.3l0,0
		C-5.3,5.3-8,9.3-8,14v6c0,1.1,0.9,2,2,2h28c1.1,0,2-0.9,2-2v-6C24,9.3,21.3,5.3,17.4,3.3z M8-6c3.3,0,6,2.7,6,6s-2.7,6-6,6
		S2,3.3,2,0S4.7-6,8-6z M20,18H-4v-4c0-3.2,1.9-6,4.6-7.2C2.5,8.7,5.1,10,8,10s5.5-1.3,7.4-3.2C18.1,8,20,10.8,20,14V18z"/>
</g>
<g id="Lager_95" class="st0">
	<g class="st1">
		<path class="st5" d="M8-6c4.4,0,8,3.6,8,8v8H0V2C0-2.4,3.6-6,8-6 M8-10L8-10C1.4-10-4-4.6-4,2v12h24V2C20-4.6,14.6-10,8-10L8-10z"
			/>
	</g>
	<path class="st4" d="M22,14H-6c-1.1,0-2-0.9-2-2v0c0-1.1,0.9-2,2-2h28c1.1,0,2,0.9,2,2v0C24,13.1,23.1,14,22,14z"/>
	<path class="st4" d="M8,22L8,22c-2.2,0-4-1.8-4-4v-2h8v2C12,20.2,10.2,22,8,22z"/>
</g>
<g id="Lager_109" class="st0">
	<path class="st4" d="M18-10H-2c-1.1,0-2,0.9-2,2v28c0,1.2,1,2,2,2c0.4,0,0.8-0.1,1.1-0.3l8.2-7.1c0.4-0.3,0.9-0.3,1.3,0l8.2,7.1
		c0.4,0.2,0.7,0.3,1.1,0.3c1,0,2-0.8,2-2V-8C20-9.1,19.1-10,18-10z M16,15.6L10.6,11l-2-1.7C8.3,9,7.7,9,7.3,9.3l-2,1.7L0,15.6V-5
		c0-0.6,0.4-1,1-1h13h1c0.6,0,1,0.4,1,1v1V15.6z"/>
</g>
<g id="Lager_7" class="st0">
	<g class="st1">
		<path class="st5" d="M8-6c5.5,0,10,4.5,10,10s-4.5,10-9.9,10l-0.1,0c-0.1,0-0.2,0-0.3,0l-0.7,0l-0.6,0.2l-6.7,2l0.8-3.2l0.4-1.8
			l-1-1.5C-1.3,8-1.9,6-1.9,4C-1.9-1.5,2.5-6,8-6 M8-10c-7.7,0-14,6.3-14,14c0,3,0.9,5.7,2.5,8L-6,22l13.4-4c0.2,0,0.4,0,0.6,0
			c7.7,0,14-6.3,14-14S15.7-10,8-10L8-10z"/>
	</g>
</g>
<g id="Lager_81" class="st0">
	<path class="st4" d="M18-8c0-1.1-0.9-2-2-2H0c-1.1,0-2,0.9-2,2l-8,14v14c0,1.1,0.9,2,2,2h32c1.1,0,2-0.9,2-2V6L18-8z M1.5-6h13.1
		l5.7,10H13c-0.6,0-1,0.4-1,1v0.8c0,2.1-1.5,4-3.6,4.2C6,10.2,4,8.3,4,6V5c0-0.6-0.4-1-1-1h-7.3L1.5-6z M21,18H-5c-0.6,0-1-0.4-1-1
		V8h6.3c0.9,3.4,4,6,7.7,6s6.8-2.6,7.7-6H22v9C22,17.6,21.6,18,21,18z"/>
</g>
<g id="Lager_82" class="st0">
	<path class="st4" d="M1.9-2l2.5,2.5C5.4,1.5,6.7,2,8,2h12v16H-4V-2H1.9 M3.2-6H-6c-1.1,0-2,0.9-2,2v24c0,1.1,0.9,2,2,2h28
		c1.1,0,2-0.9,2-2V0c0-1.1-0.9-2-2-2H8C7.7-2,7.5-2.1,7.3-2.3L3.9-5.7C3.7-5.9,3.4-6,3.2-6L3.2-6z"/>
</g>
<g id="Lager_10" class="st0">
	<path class="st4" d="M6-4c4.4,0,8,3.6,8,8c0,1.7-0.5,3.3-1.5,4.6l-0.8,1.1l-1.1,0.8c-1.4,1-3,1.5-4.6,1.5c-4.4,0-8-3.6-8-8
		S1.6-4,6-4 M6-8C-0.6-8-6-2.6-6,4c0,6.6,5.4,12,12,12c2.6,0,5-0.8,6.9-2.2l5.6,5.6C19,19.8,19.5,20,20,20c0.5,0,1-0.2,1.4-0.6l0,0
		c0.8-0.8,0.9-2.1,0-2.8l-5.6-5.6C17.2,9,18,6.6,18,4C18-2.6,12.6-8,6-8L6-8z"/>
</g>
<g id="Lager_96" class="st0">
	<path class="st4" d="M18-6H-2c-1.1,0-2-0.9-2-2v-2h24v2C20-6.9,19.1-6,18-6z"/>
	<path class="st4" d="M-2,10h20c1.1,0,2,0.9,2,2v2H-4v-2C-4,10.9-3.1,10-2,10z"/>
	<path class="st4" d="M10,14H6v6c0,1.1,0.9,2,2,2h0c1.1,0,2-0.9,2-2V14z"/>
	<g class="st1">
		<path class="st5" d="M14-6v16H2V-6H14 M18-10H-2v24h20V-10L18-10z"/>
	</g>
</g>
<g id="Lager_13" class="st0">
	<path class="st4" d="M7.9,6.7C7.7,6.5,7.6,5.9,7.6,5.9c0-0.2,0.1-0.5,0.3-0.7l5.5-5.7c0.8-0.8,0.8-2.1,0-2.9l0,0
		c-0.8-0.8-2.1-0.8-2.9,0L2.3,5.2C2.1,5.4,2,5.7,2,5.9c0,0,0.1,0.6,0.3,0.8l8.3,8.7c0.8,0.8,2.1,0.8,2.9,0l0,0
		c0.8-0.8,0.8-2.1,0-2.9L7.9,6.7z"/>
</g>
<g id="Lager_14" class="st0">
	<path class="st4" d="M7.3,5.9c0.2-0.2,0.7-0.3,0.7-0.3c0.2,0,0.5,0.1,0.7,0.3l5.7,5.5c0.8,0.8,2.1,0.8,2.9,0l0,0
		c0.8-0.8,0.8-2.1,0-2.9L8.8,0.3C8.6,0.1,8.3,0,8.1,0c0,0-0.6,0.1-0.8,0.3l-8.7,8.3c-0.8,0.8-0.8,2.1,0,2.9l0,0
		c0.8,0.8,2.1,0.8,2.9,0L7.3,5.9z"/>
</g>
<g id="Lager_15" class="st0">
	<path class="st4" d="M7.1,5.7c0.2-0.2,0.3-0.7,0.3-0.7c0-0.2-0.1-0.5-0.3-0.7L1.6-1.5c-0.8-0.8-0.8-2.1,0-2.9l0,0
		c0.8-0.8,2.1-0.8,2.9,0l8.3,8.6C12.9,4.4,13,4.7,13,4.9c0,0-0.1,0.6-0.3,0.8l-8.3,8.7c-0.8,0.8-2.1,0.8-2.9,0l0,0
		c-0.8-0.8-0.8-2.1,0-2.9L7.1,5.7z"/>
</g>
<g id="Lager_16" class="st0">
	<path class="st4" d="M6.3,5.1c0.2,0.2,0.7,0.3,0.7,0.3c0.2,0,0.5-0.1,0.7-0.3l5.7-5.5c0.8-0.8,2.1-0.8,2.9,0l0,0
		c0.8,0.8,0.8,2.1,0,2.9l-8.6,8.3C7.6,10.9,7.3,11,7.1,11c0,0-0.6-0.1-0.8-0.3l-8.7-8.3c-0.8-0.8-0.8-2.1,0-2.9l0,0
		c0.8-0.8,2.1-0.8,2.9,0L6.3,5.1z"/>
</g>
<g id="Lager_17" class="st0">
	<path class="st4" d="M14.1,6.7c0.2-0.2,0.3-0.7,0.3-0.7c0-0.2-0.1-0.5-0.3-0.7L8.6-0.5c-0.8-0.8-0.8-2.1,0-2.9l0,0
		c0.8-0.8,2.1-0.8,2.9,0l8.3,8.6C19.9,5.4,20,5.7,20,5.9c0,0-0.1,0.6-0.3,0.8l-8.3,8.7c-0.8,0.8-2.1,0.8-2.9,0l0,0
		c-0.8-0.8-0.8-2.1,0-2.9L14.1,6.7z"/>
	<path class="st4" d="M2.1,6.7c0.2-0.2,0.3-0.7,0.3-0.7c0-0.2-0.1-0.5-0.3-0.7l-5.5-5.7c-0.8-0.8-0.8-2.1,0-2.9l0,0
		c0.8-0.8,2.1-0.8,2.9,0l8.3,8.6C7.9,5.4,8,5.7,8,5.9c0,0-0.1,0.6-0.3,0.8l-8.3,8.7c-0.8,0.8-2.1,0.8-2.9,0l0,0
		c-0.8-0.8-0.8-2.1,0-2.9L2.1,6.7z"/>
</g>
<g id="Lager_18" class="st0">
	<path class="st4" d="M0.9,5.7C0.7,5.5,0.6,4.9,0.6,4.9c0-0.2,0.1-0.5,0.3-0.7l5.5-5.7c0.8-0.8,0.8-2.1,0-2.9l0,0
		c-0.8-0.8-2.1-0.8-2.9,0l-8.3,8.6C-4.9,4.4-5,4.7-5,4.9c0,0,0.1,0.6,0.3,0.8l8.3,8.7c0.8,0.8,2.1,0.8,2.9,0l0,0
		c0.8-0.8,0.8-2.1,0-2.9L0.9,5.7z"/>
	<path class="st4" d="M12.9,5.7c-0.2-0.2-0.3-0.7-0.3-0.7c0-0.2,0.1-0.5,0.3-0.7l5.5-5.7c0.8-0.8,0.8-2.1,0-2.9l0,0
		c-0.8-0.8-2.1-0.8-2.9,0L7.3,4.2C7.1,4.4,7,4.7,7,4.9c0,0,0.1,0.6,0.3,0.8l8.3,8.7c0.8,0.8,2.1,0.8,2.9,0l0,0
		c0.8-0.8,0.8-2.1,0-2.9L12.9,5.7z"/>
</g>
<g id="Lager_19" class="st0">
	<path class="st4" d="M8,16L8,16c-1.1,0-2-0.9-2-2V-2c0-1.1,0.9-2,2-2h0c1.1,0,2,0.9,2,2v16C10,15.1,9.1,16,8,16z"/>
	<path class="st4" d="M-2,6L-2,6c0-1.1,0.9-2,2-2h16c1.1,0,2,0.9,2,2v0c0,1.1-0.9,2-2,2H0C-1.1,8-2,7.1-2,6z"/>
</g>
<g id="Lager_20" class="st0">
	<path class="st4" d="M10.7,6l6.8-6.8c0.7-0.7,0.7-1.9,0-2.7l0,0c-0.7-0.7-1.9-0.7-2.7,0L8,3.3L1.2-3.4c-0.7-0.7-1.9-0.7-2.7,0l0,0
		c-0.7,0.7-0.7,1.9,0,2.7L5.3,6l-6.8,6.8c-0.7,0.7-0.7,1.9,0,2.7l0,0c0.7,0.7,1.9,0.7,2.7,0L8,8.7l6.8,6.8c0.7,0.7,1.9,0.7,2.7,0
		l0,0c0.7-0.7,0.7-1.9,0-2.7L10.7,6z"/>
</g>
<g id="Lager_21" class="st0">
	<g class="st1">
		<path class="st5" d="M0,4L0,4c-1.1,0-2,0.9-2,2v0c0,1.1,0.9,2,2,2h0c1.1,0,2-0.9,2-2v0C2,4.9,1.1,4,0,4z"/>
		<path class="st5" d="M8,4L8,4C6.9,4,6,4.9,6,6v0c0,1.1,0.9,2,2,2h0c1.1,0,2-0.9,2-2v0C10,4.9,9.1,4,8,4z"/>
		<path class="st5" d="M16,4L16,4c-1.1,0-2,0.9-2,2v0c0,1.1,0.9,2,2,2h0c1.1,0,2-0.9,2-2v0C18,4.9,17.1,4,16,4z"/>
	</g>
</g>
<g id="Lager_22" class="st0">
	<g class="st1">
		<path class="st5" d="M16,2H0c-1.3,0-2.2,1.1-2,2.3l2.7,16c0,0.9,0.8,1.7,1.7,1.7h11.1c1,0,1.7-0.7,1.7-1.7l2.7-16
			C18.2,3.1,17.2,2,16,2z M11.6,18H4.4l-2-12h11.3L11.6,18z"/>
		<path class="st5" d="M20-6h-6c0,0-2,0-2-2c0-1.1-0.9-2-2-2H6c-1.1,0-2,0.9-2,2c0,2-2,2-2,2h-6c-1.1,0-2,0.9-2,2v0c0,1.1,0.9,2,2,2
			h24c1.1,0,2-0.9,2-2v0C22-5.1,21.1-6,20-6z"/>
	</g>
</g>
<g id="Lager_26" class="st0">
	<path class="st4" d="M22-0.1V-2v-2c0-1.1-0.9-2-2-2H8H-4c-1.1,0-2,0.9-2,2v2.1v1.8v2.5V4v12c0,1.1,0.9,2,2,2H8h12c1.1,0,2-0.9,2-2
		V6V2.4V-0.1z M18,13c0,0.6-0.4,1-1,1H8h-9c-0.6,0-1-0.4-1-1V4.7l9.2,5.1c0.5,0.3,1.1,0.3,1.6,0L18,4.7V13z M18,0.1L8,5.7L-2,0.1V-1
		c0-0.6,0.4-1,1-1h9h9c0.6,0,1,0.4,1,1V0.1z"/>
</g>
<g id="Lager_25" class="st0">
	<path class="st1" d="M22-8H8H-6c-1.1,0-2,0.9-2,2v8c0,1.1,0.9,2,2,2h2v14c0,1.1,0.9,2,2,2H8h10c1.1,0,2-0.9,2-2V4h2
		c1.1,0,2-0.9,2-2v-8C24-7.1,23.1-8,22-8z M16,15c0,0.6-0.4,1-1,1H8H1c-0.6,0-1-0.4-1-1V5c0-0.6,0.4-1,1-1h3v3c0,0.6,0.4,1,1,1h3h3
		c0.6,0,1-0.4,1-1V4h3c0.6,0,1,0.4,1,1V15z M20-1c0,0.6-0.4,1-1,1h-3v0.1C15.7,0,15.3,0,15,0h-2h-1H8H4H3H1C0.7,0,0.3,0,0,0.1V0h-3
		c-0.6,0-1-0.4-1-1v-2c0-0.6,0.4-1,1-1h6h1h4h4h1h6c0.6,0,1,0.4,1,1V-1z"/>
</g>
<g id="Lager_27" class="st0">
	<path class="st6" d="M23.4,4.5l-4-3.9c-0.8-0.8-2-0.8-2.8,0C15.8,1.4,16,3.4,16,3.4L16,4h-6v-6l0.6,0c0,0,2.1,0.2,2.8-0.6
		c0.8-0.8,0.8-2,0-2.8l-4.1-4C9-9.8,8.5-10,7.9-10c-0.5,0-1,0.2-1.4,0.6l-3.9,4c-0.8,0.8-0.8,2,0,2.8C3.4-1.8,5.4-2,5.4-2L6-2v6H0
		l0-0.6c0,0,0.2-2.1-0.6-2.8c-0.8-0.8-2-0.8-2.8,0l-4,4.1C-7.8,5-8,5.5-8,6.1c0,0.5,0.2,1,0.6,1.4l4,3.9c0.8,0.8,2,0.8,2.8,0
		C0.2,10.6,0,8.6,0,8.6L0,8h6v6l-0.6,0c0,0-2.1-0.2-2.8,0.6c-0.8,0.8-0.8,2,0,2.8l4.1,4C7,21.8,7.5,22,8.1,22c0.5,0,1-0.2,1.4-0.6
		l3.9-4c0.8-0.8,0.8-2,0-2.8c-0.8-0.8-2.8-0.6-2.8-0.6L10,14V8h6l0,0.6c0,0-0.2,2.1,0.6,2.8c0.8,0.8,2,0.8,2.8,0l4-4.1
		C23.8,7,24,6.5,24,5.9C24,5.4,23.8,4.9,23.4,4.5z"/>
</g>
<g id="Lager_28" class="st0">
	<g class="st1">
		<path class="st5" d="M8-10C-0.8-10-8-2.8-8,6s7.2,16,16,16s16-7.2,16-16S16.8-10,8-10z M8,18C1.4,18-4,12.6-4,6S1.4-6,8-6
			S20-0.6,20,6S14.6,18,8,18z"/>
		<path class="st5" d="M13.4,0.6L13.4,0.6c-0.8-0.8-2-0.8-2.7,0L8,3.3L5.3,0.6c-0.7-0.7-1.9-0.7-2.7,0l0,0c-0.7,0.7-0.7,1.9,0,2.7
			L5.3,6L2.6,8.7c-0.7,0.7-0.7,1.9,0,2.7l0,0c0.7,0.7,1.9,0.7,2.7,0L8,8.7l2.7,2.7c0.7,0.7,1.9,0.7,2.7,0l0,0c0.7-0.7,0.7-1.9,0-2.7
			L10.7,6l2.7-2.7C14.2,2.5,14.2,1.3,13.4,0.6z"/>
	</g>
</g>
<g id="Lager_28_kopia" class="st0">
	<g class="st1">
		<path class="st5" d="M8-10C-0.8-10-8-2.8-8,6s7.2,16,16,16s16-7.2,16-16S16.8-10,8-10z M8,18C1.4,18-4,12.6-4,6S1.4-6,8-6
			S20-0.6,20,6S14.6,18,8,18z"/>
		<path class="st5" d="M14,4h-4V0c0-1.1-0.9-2-2-2h0C6.9-2,6-1.1,6,0v4H2C0.9,4,0,4.9,0,6v0c0,1.1,0.9,2,2,2h4v4c0,1.1,0.9,2,2,2h0
			c1.1,0,2-0.9,2-2V8h4c1.1,0,2-0.9,2-2v0C16,4.9,15.1,4,14,4z"/>
	</g>
</g>
<g id="Lager_29" class="st0">
	<g class="st1">
		<path class="st5" d="M12.6,4.6L10,7.2V5V0c0-1.1-0.9-2-2-2h0C6.9-2,6-1.1,6,0v5v1.9l-0.3,0L3.5,4.7C2.8,4,1.6,3.8,0.8,4.4
			c-1,0.7-1.1,2.2-0.3,3l6.1,6C7,13.8,7.5,14,8.1,14c0.5,0,1-0.2,1.4-0.6l5.9-6c0.8-0.8,0.8-2,0-2.8C14.6,3.8,13.4,3.8,12.6,4.6z"/>
		<path class="st5" d="M8-10C-0.8-10-8-2.8-8,6s7.2,16,16,16s16-7.2,16-16S16.8-10,8-10z M8,18C1.4,18-4,12.6-4,6S1.4-6,8-6
			S20-0.6,20,6S14.6,18,8,18z"/>
	</g>
</g>
<g id="Lager_30" class="st0">
	<g class="st1">
		<path class="st5" d="M6.6,1.4L9.2,4H7H2C0.9,4,0,4.9,0,6v0c0,1.1,0.9,2,2,2h5h1.9l0,0.3l-2.2,2.2c-0.7,0.7-0.9,1.8-0.3,2.7
			c0.7,1,2.2,1.1,3,0.3l6-6.1C15.8,7,16,6.5,16,5.9c0-0.5-0.2-1-0.6-1.4l-6-5.9c-0.8-0.8-2-0.8-2.8,0C5.8-0.6,5.8,0.6,6.6,1.4z"/>
		<path class="st5" d="M-8,6c0,8.8,7.2,16,16,16s16-7.2,16-16S16.8-10,8-10S-8-2.8-8,6z M20,6c0,6.6-5.4,12-12,12S-4,12.6-4,6
			S1.4-6,8-6S20-0.6,20,6z"/>
	</g>
</g>
<g id="Lager_31" class="st0">
	<g class="st1">
		<path class="st5" d="M3.4,7.4L6,4.8V7v5c0,1.1,0.9,2,2,2h0c1.1,0,2-0.9,2-2V7V5.1l0.3,0l2.2,2.2c0.7,0.7,1.8,0.9,2.7,0.3
			c1-0.7,1.1-2.2,0.3-3l-6.1-6C9-1.8,8.5-2,7.9-2c-0.5,0-1,0.2-1.4,0.6l-5.9,6c-0.8,0.8-0.8,2,0,2.8C1.4,8.2,2.6,8.2,3.4,7.4z"/>
		<path class="st5" d="M8,22c8.8,0,16-7.2,16-16S16.8-10,8-10S-8-2.8-8,6S-0.8,22,8,22z M8-6c6.6,0,12,5.4,12,12S14.6,18,8,18
			S-4,12.6-4,6S1.4-6,8-6z"/>
	</g>
</g>
<g id="Lager_32" class="st0">
	<g class="st1">
		<path class="st5" d="M9.4,10.6L6.8,8H9h5c1.1,0,2-0.9,2-2v0c0-1.1-0.9-2-2-2H9H7.1l0-0.3l2.2-2.2c0.7-0.7,0.9-1.8,0.3-2.7
			c-0.7-1-2.2-1.1-3-0.3l-6,6.1C0.2,5,0,5.5,0,6.1c0,0.5,0.2,1,0.6,1.4l6,5.9c0.8,0.8,2,0.8,2.8,0C10.2,12.6,10.2,11.4,9.4,10.6z"/>
		<path class="st5" d="M24,6c0-8.8-7.2-16-16-16S-8-2.8-8,6s7.2,16,16,16S24,14.8,24,6z M-4,6C-4-0.6,1.4-6,8-6S20-0.6,20,6
			S14.6,18,8,18S-4,12.6-4,6z"/>
	</g>
</g>
<g id="Lager_35" class="st0">
	<g class="st1">
		<path class="st2" d="M17.4,3.4L17.4,3.4c-0.8,0.8-2,0.8-2.7,0l-6-6.1C8.3-3,7.7-3,7.3-2.6l-6,6.1c-0.7,0.7-1.9,0.7-2.7,0l0,0
			c-0.7-0.7-0.7-1.9,0-2.7l8.1-8.2c0.7-0.7,1.9-0.7,2.7,0l8.1,8.2C18.2,1.5,18.2,2.7,17.4,3.4z"/>
	</g>
	<g class="st1">
		<path class="st2" d="M-1.4,8.6L-1.4,8.6c0.8-0.8,2-0.8,2.7,0l6,6.1c0.4,0.4,1,0.4,1.4,0l6-6.1c0.7-0.7,1.9-0.7,2.7,0l0,0
			c0.7,0.7,0.7,1.9,0,2.7l-8.1,8.2c-0.7,0.7-1.9,0.7-2.7,0l-8.1-8.2C-2.2,10.5-2.2,9.3-1.4,8.6z"/>
	</g>
</g>
<g id="Lager_36" class="st0">
	<g class="st1">
		<path class="st2" d="M1,6h2c0.6,0,1-0.4,1-1V3c0-0.6-0.4-1-1-1H1C0.4,2,0,2.4,0,3v2C0,5.6,0.4,6,1,6z"/>
		<path class="st2" d="M9,6h6c0.6,0,1-0.4,1-1V3c0-0.6-0.4-1-1-1H9C8.4,2,8,2.4,8,3v2C8,5.6,8.4,6,9,6z"/>
		<path class="st2" d="M1,14h2c0.6,0,1-0.4,1-1v-2c0-0.6-0.4-1-1-1H1c-0.6,0-1,0.4-1,1v2C0,13.6,0.4,14,1,14z"/>
		<path class="st2" d="M9,14h6c0.6,0,1-0.4,1-1v-2c0-0.6-0.4-1-1-1H9c-0.6,0-1,0.4-1,1v2C8,13.6,8.4,14,9,14z"/>
		<path class="st2" d="M22-10H-6c-1.1,0-2,0.9-2,2v28c0,1.1,0.9,2,2,2h28c1.1,0,2-0.9,2-2V-8C24-9.1,23.1-10,22-10z M20,17
			c0,0.6-0.4,1-1,1H-3c-0.6,0-1-0.4-1-1V-1c0-0.6,0.4-1,1-1h22c0.6,0,1,0.4,1,1V17z"/>
	</g>
</g>
<g id="Lager_37" class="st0">
	<path class="st7" d="M18.1-8h-0.1C14.7-8,12-5.3,12-2.1v0.1c0,2.6,1.7,4.8,4,5.6V10c0,1.1-0.9,2-2,2h-0.3c-0.8-2.3-3-4-5.6-4H7.9
		c-2.6,0-4.8,1.7-5.6,4H2c-1.1,0-2-0.9-2-2V3.7c2.3-0.8,4-3,4-5.6v-0.1C4-5.3,1.3-8-1.9-8h-0.1C-5.3-8-8-5.3-8-2.1v0.1
		c0,2.6,1.7,4.8,4,5.6V12v0c0,2.2,1.8,4,4,4h2.4c0.8,2.3,3,4,5.6,4h0.1c2.6,0,4.8-1.7,5.6-4H16c2.2,0,4-1.8,4-4v0V3.7
		c2.3-0.8,4-3,4-5.6v-0.1C24-5.3,21.3-8,18.1-8z M-2,0c-1.1,0-2-0.9-2-2c0-1.1,0.9-2,2-2s2,0.9,2,2C0-0.9-0.9,0-2,0z M8,16
		c-1.1,0-2-0.9-2-2c0-1.1,0.9-2,2-2s2,0.9,2,2C10,15.1,9.1,16,8,16z M18,0c-1.1,0-2-0.9-2-2c0-1.1,0.9-2,2-2s2,0.9,2,2
		C20-0.9,19.1,0,18,0z"/>
</g>
<g id="Lager_38" class="st0">
	<path class="st7" d="M12,4L12,4c-1.1,0-2-0.9-2-2v0c0-1.1,0.9-2,2-2h0c1.1,0,2,0.9,2,2v0C14,3.1,13.1,4,12,4z"/>
	<path class="st7" d="M24-10"/>
	<path class="st7" d="M17.9-3.9L17.4,6.3c0,0.2-0.1,0.5-0.3,0.7l-7.5,7.5c-0.4,0.4-1,0.4-1.4,0l-8.7-8.7c-0.4-0.4-0.4-1,0-1.4L7-3.1
		c0.2-0.2,0.4-0.3,0.7-0.3L17.9-3.9 M19.9-8C19.9-8,19.9-8,19.9-8L6.3-7.4c-0.5,0-1,0.2-1.3,0.6L-5.4,3.6c-0.8,0.8-0.8,2.1,0,2.9
		L7.5,19.4C7.9,19.8,8.4,20,8.9,20s1.1-0.2,1.5-0.6L20.8,9c0.4-0.4,0.6-0.8,0.6-1.3L22-5.8C22.1-7,21.1-8,19.9-8L19.9-8z"/>
</g>
<g id="Lager_39" class="st0">
	<path class="st4" d="M22.2,6.5c1.1-1.7,1.8-3.7,1.8-6C24-5.3,19.5-10,14-10c-4.8,0-8.8,3.5-9.7,8.3C3.5-1.9,2.8-2,2-2
		C-3.5-2-8,2.7-8,8.5c0,2.2,0.7,4.3,1.8,6L-8,22l9.6-3c0.1,0,0.3,0,0.4,0c4.8,0,8.8-3.5,9.7-8.3c0.7,0.2,1.4,0.3,2.2,0.3
		c0.1,0,0.3,0,0.4,0l9.6,3L22.2,6.5z M8,8.9C8,8.9,8,8.9,8,8.9c0,0.6-0.2,1.2-0.3,1.8c0,0,0,0,0,0c-0.1,0.2-0.1,0.4-0.2,0.5
		c0,0,0,0,0,0c-0.1,0.2-0.2,0.3-0.2,0.5c0,0,0,0,0,0.1C7.1,12,7,12.1,6.9,12.3c0,0,0,0.1-0.1,0.1c-0.1,0.1-0.2,0.2-0.3,0.4
		c0,0-0.1,0.1-0.1,0.1c-0.1,0.1-0.2,0.2-0.3,0.3c-0.1,0.1-0.1,0.1-0.2,0.2c-0.1,0.1-0.1,0.1-0.2,0.2c-0.1,0.1-0.2,0.2-0.3,0.2
		c0,0-0.1,0.1-0.1,0.1C5.2,14,5,14.1,4.9,14.2c0,0,0,0,0,0c-0.7,0.4-1.4,0.7-2.2,0.7c0,0,0,0,0,0c-0.2,0-0.3,0-0.5,0l0,0
		c0,0,0,0,0,0c0,0,0,0,0,0c-0.2,0-0.4,0-0.6,0l-0.3,0l-0.7,0.2l-2.9,0.9l0.2-0.7l0.4-1.7l-0.6-0.9C-3.4,11.7-4,10.2-4,8.5
		C-4,4.9-1.3,2,2,2c0,0,0,0,0,0c0,0,0,0,0,0c0.2,0,0.4,0,0.6,0c0,0,0,0,0.1,0c0.2,0,0.3,0,0.5,0.1c0.1,0,0.2,0,0.3,0.1
		c0.1,0,0.2,0,0.3,0.1c0.1,0,0.2,0.1,0.3,0.1c0,0,0.1,0,0.1,0.1c0,0,0,0,0,0C6.4,3.4,8,5.7,8,8.5C8,8.6,8,8.8,8,8.9L8,8.9z
		 M18.8,4.3l-1,1.4l0.4,1.7l0.2,0.7l-2.9-0.9L14.9,7l-0.7,0C14.1,7,14,7,14,7l0,0c-0.7,0-1.4-0.2-2.1-0.4C11.4,3.9,10,1.7,8,0.1
		C8.2-3.3,10.8-6,14-6c3.3,0,6,2.9,6,6.5C20,1.9,19.6,3.2,18.8,4.3z"/>
</g>
<g id="Lager_40" class="st0">
	<path class="st4" d="M20,1c0-0.3,0-0.7-0.3-0.9L9.9-9.7C9.7-9.9,9.3-10,9-10v0H8H6h-8c-1.1,0-2,0.9-2,2v28c0,1.1,0.9,2,2,2h20
		c1.1,0,2-0.9,2-2V3V2L20,1L20,1z M15,18H1c-0.6,0-1-0.4-1-1V-5c0-0.6,0.4-1,1-1h5h1c0.6,0,1,0.4,1,1v5.9C8,1.5,8.5,2,9.1,2H15
		c0.6,0,1,0.4,1,1v14C16,17.6,15.6,18,15,18z"/>
</g>
<g id="Lager_41" class="st0">
	<path class="st4" d="M24-1.7c0-0.2,0-0.5-0.3-0.7l-8.1-7.3C15.4-9.9,15.2-10,15-10c0,0-0.1,0-0.1,0v0H14h-1.7H5.7
		C4.7-10,4-9.3,4-8.5v7.1L3.6-1.7C3.4-1.9,3.2-2,3-2c0,0-0.1,0-0.1,0v0H2H0.3h-6.7C-7.3-2-8-1.3-8-0.5v21c0,0.8,0.7,1.5,1.7,1.5
		h16.7c0.9,0,1.7-0.7,1.7-1.5V14h10.3c0.9,0,1.7-0.7,1.7-1.5V-0.2V-1L24-1.7L24-1.7z M8,17c0,0.6-0.4,1-1,1H-3c-0.6,0-1-0.4-1-1V3
		c0-0.6,0.4-1,1-1h1h1h5v10.5C4,13.3,4.7,14,5.7,14H8V17z M20,9c0,0.6-0.4,1-1,1H9c-0.6,0-1-0.4-1-1V-5c0-0.6,0.4-1,1-1h2
		c0.6,0,1,0.4,1,1v5c0,1.1,0.9,2,2,2h5c0.6,0,1,0.4,1,1V9z"/>
</g>
<g id="Lager_42" class="st0">
	<path class="st6" d="M22,18c-1.1,0-2-0.9-2-2v-0.6c-2.1,2.2-4.9,4-8,4.6l-1.3,1.3C10.3,21.7,9.5,22,9,22H8l0,0l0,0H7
		c-0.5,0-1.3-0.3-1.7-0.7L4,20c-3.1-0.7-5.9-2.4-8-4.6V16c0,1.1-0.9,2-2,2s-2-0.9-2-2v-6c0-1.1,0.9-2,2-2h6c1.1,0,2,0.9,2,2
		s-0.9,2-2,2h2h0h-2.9c1.8,2,4.1,3.4,6.8,3.8V9V8V6V4H4.2C3,4,2,3.1,2,2v0c0-1.1,1-2,2.2-2H6v-2.6C4.8-3.2,4-4.5,4-6
		c0-2.2,1.8-4,4-4l0,0l0,0c2.2,0,4,1.8,4,4c0,1.5-0.8,2.8-2,3.4V0h1.8C13,0,14,0.9,14,2v0c0,1.1-1,2-2.2,2H10v2v2v1v6.8
		c2.7-0.5,5.1-1.9,6.8-3.8H14h0h2c-1.1,0-2-0.9-2-2s0.9-2,2-2h6c1.1,0,2,0.9,2,2v6C24,17.1,23.1,18,22,18z M-6,20L-6,20
		C-6,20-6,20-6,20L-6,20C-6,20-6,20-6,20z M22,20L22,20C22,20,22,20,22,20L22,20C22,20,22,20,22,20z"/>
</g>
<g id="Lager_44" class="st0">
	<g class="st1">
		<path class="st5" d="M8-10C-0.8-10-8-2.8-8,6s7.2,16,16,16s16-7.2,16-16S16.8-10,8-10z M8,18C1.4,18-4,12.6-4,6S1.4-6,8-6
			S20-0.6,20,6S14.6,18,8,18z"/>
		<path class="st5" d="M12,6H9C8.4,6,8,5.6,8,5V2c0-1.1-0.9-2-2-2h0C4.9,0,4,0.9,4,2v6c0,1.1,0.9,2,2,2h0h2h4c1.1,0,2-0.9,2-2v0
			C14,6.9,13.1,6,12,6z"/>
	</g>
</g>
<g id="Lager_45" class="st0">
	<g class="st1">
		<path class="st5" d="M18,2h-2v-5h-0.1c-0.5-3.9-3.9-7-7.9-7S0.6-6.9,0.1-3H0v5h-2c-1.1,0-2,0.9-2,2v16c0,1.1,0.9,2,2,2h20
			c1.1,0,2-0.9,2-2V4C20,2.9,19.1,2,18,2z M4-2c0-2.2,1.8-4,4-4s4,1.8,4,4v4H4V-2z M15,18H1c-0.6,0-1-0.4-1-1V7c0-0.6,0.4-1,1-1h14
			c0.6,0,1,0.4,1,1v10C16,17.6,15.6,18,15,18z"/>
		<circle class="st5" cx="8" cy="12" r="2"/>
	</g>
</g>
<g id="Lager_46" class="st0">
	<g class="st1">
		<path class="st5" d="M18,2h-2v-5h-0.1l0,0c-0.5-3.9-3.9-7-8.1-7c-3.6,0-6.7,2.3-7.8,5.5C-0.3-3.2,0.6-2,1.9-2h0.2
			C3-2,3.7-2.6,4-3.3C4.6-4.9,6.1-6,7.8-6C10.1-6,12-4.2,12-2v4H6H4H0h-2c-1.1,0-2,0.9-2,2v16c0,1.1,0.9,2,2,2h20c1.1,0,2-0.9,2-2V4
			C20,2.9,19.1,2,18,2z M16,17c0,0.6-0.4,1-1,1H1c-0.6,0-1-0.4-1-1V7c0-0.6,0.4-1,1-1h14c0.6,0,1,0.4,1,1V17z"/>
		<circle class="st5" cx="8" cy="12" r="2"/>
	</g>
</g>
<g id="Lager_47" class="st0">
	<path class="st4" d="M19.2,2h-0.3C19.6,0.8,20-0.5,20-2c0-4.4-3.6-8-8-8S4-6.4,4-2c-4.4,0-8,3.6-8,8c0,1.5,0.4,2.8,1.1,4h-0.3
		C-6,11.3-8,14-8,16.9V20c0,0.7,1.1,2,1.9,2h20.3c0.8,0,1.8-1.3,1.8-2v-3.1c0-1-0.2-2-0.7-2.9h6.9c0.8,0,1.8-1.3,1.8-2V8.9
		C24,6,22,3.3,19.2,2z M12-6c2.2,0,4,1.8,4,4s-1.8,4-4,4c-0.4,0-0.8-0.1-1.2-0.2c-0.7-1.1-1.5-1.9-2.6-2.6C8.1-1.2,8-1.6,8-2
		C8-4.2,9.8-6,12-6z M4,2c2.2,0,4,1.8,4,4c0,2.2-1.8,4-4,4c-2,0-3.6-1.4-3.9-3.3C0,6.5,0,6.2,0,6C0,3.8,1.8,2,4,2z M12,18H-4v-1.1
		c0-1.1,0.7-2.2,1.8-2.9h4.1h8.3c1.1,0.7,1.8,1.8,1.8,2.9V18z M20,10h-8.8h-0.3C11.6,8.8,12,7.5,12,6h6.2C19.3,6.7,20,7.8,20,8.9V10
		z"/>
</g>
<g id="Lager_48" class="st0">
	<path class="st4" d="M8-4l1.5,4C10.4,1.8,12,3,14,3.3L18,4l-3.1,3c-1.3,1.3-1.9,3.3-1.6,5.1L14,16l-3.1-1.5C10,14,9,14,8,14
		c-1,0-2,0-2.9,0.5L2,16l0.7-3.9C3,10.2,2.4,8.3,1.1,7L-2,4l4-0.7C4,3,5.6,1.8,6.5,0L8-4 M8-10.1c-0.7,0-1.4,0.4-1.8,1.1L2.9-1.7
		C2.6-1.1,2-0.7,1.4-0.6l-7.7,1.2c-1.6,0.2-2.2,2.2-1.1,3.3l5.7,5.9c0.4,0.4,0.6,1.1,0.5,1.7l-1.3,8.2c-0.2,1.3,0.8,2.3,1.9,2.3
		c0.3,0,0.6-0.1,1-0.3L7,18c0.3-0.2,0.6-0.2,1-0.2c0.3,0,0.7,0.1,1,0.2l6.7,3.7c0.3,0.2,0.6,0.3,1,0.3c1.1,0,2.1-1,1.9-2.3l-1.3-8.2
		c-0.1-0.6,0.1-1.2,0.5-1.7l5.7-5.9c1.1-1.1,0.5-3.1-1.1-3.3l-7.7-1.2c-0.6-0.1-1.2-0.5-1.5-1.1L9.8-8.9C9.4-9.7,8.7-10.1,8-10.1
		L8-10.1z"/>
</g>
<g id="Lager_97" class="st0">
	<path class="st1" d="M25.4,6.6L9.6-9.2c0-0.1-0.1-0.1-0.2-0.2C9-9.8,8.5-10,8-10c-0.5,0-1,0.2-1.4,0.6C6.5-9.4,6.5-9.3,6.4-9.2
		L-9.4,6.6c-0.8,0.8-0.8,2,0,2.8c0.8,0.8,2,0.8,2.8,0L8-5.2L22.6,9.4c0.8,0.8,2,0.8,2.8,0C26.2,8.6,26.2,7.4,25.4,6.6z"/>
	<path class="st1" d="M10,10H6c-1.1,0-2,0.9-2,2v6h8v-6C12,10.9,11.1,10,10,10z"/>
	<circle class="st1" cx="8" cy="4" r="2"/>
	<g class="st1">
		<path d="M0,10V1h-4v19c0,1.1,0.9,2,2,2h0c1.1,0,2-0.9,2-2v-3V10z"/>
		<path d="M4,18v3c0,0.6,0.4,1,1,1h6c0.6,0,1-0.4,1-1v-3H4z"/>
		<path d="M16,1v9v7v3c0,1.1,0.9,2,2,2h0c1.1,0,2-0.9,2-2V1H16z"/>
	</g>
	<rect x="-2" y="18" class="st1" width="20" height="4"/>
</g>
<g id="Lager_99" class="st0">
	<path class="st4" d="M26-1h-8l-3.4-3.4C14.2-4.8,13.7-5,13.2-5H6.8c-0.5,0-1,0.2-1.4,0.6L2-1h-8c-1.1,0-2,0.9-2,2v20
		c0,1.1,0.9,2,2,2h3h1c1.1,0,2-0.9,2-2c0-1.1-0.9-2-2-2h-1c-0.6,0-1-0.4-1-1V4c0-0.6,0.4-1,1-1h5h1.7l1.2-1.2L7.7-1h4.7l2.8,2.8
		L16.3,3H18h5c0.6,0,1,0.4,1,1v14c0,0.6-0.4,1-1,1h-1c-1.1,0-2,0.9-2,2c0,1.1,0.9,2,2,2l0,0h0h1h3c1.1,0,2-0.9,2-2V1
		C28-0.1,27.1-1,26-1z"/>
	<g class="st1">
		<path class="st5" d="M10,9c2.2,0,4,1.8,4,4s-1.8,4-4,4s-4-1.8-4-4S7.8,9,10,9 M10,5c-4.4,0-8,3.6-8,8s3.6,8,8,8s8-3.6,8-8
			S14.4,5,10,5L10,5z"/>
	</g>
</g>
<g id="Lager_54" class="st0">
	<g class="st1">
		<path class="st5" d="M20-10h-2H2h-4c-2.2,0-4,1.8-4,4v24c0,2.2,1.8,4,4,4h4h18c1.1,0,2-0.9,2-2v-1v-1v-4v-3.9V-6v-2
			C22-9.1,21.1-10,20-10z M18,17c0,0.6-0.4,1-1,1H2H0c-1.1,0-2-0.9-2-2v0c0-1.1,0.9-2,2-2h2h15c0.6,0,1,0.4,1,1V17z M18,9.1
			c0,0.6-0.4,1-1,1H3c-0.6,0-1-0.4-1-1V-5c0-0.6,0.4-1,1-1h14c0.6,0,1,0.4,1,1V9.1z"/>
		<path class="st5" d="M13-2H7C6.4-2,6-1.6,6-1v2c0,0.6,0.4,1,1,1h6c0.6,0,1-0.4,1-1v-2C14-1.6,13.6-2,13-2z"/>
	</g>
</g>
<g id="Lager_56" class="st0">
	<g class="st1">
		<path class="st5" d="M8-6c1.1,0,2,0.9,2,2v8c0,1.1-0.9,2-2,2S6,5.1,6,4v-8C6-5.1,6.9-6,8-6 M8-10c-3.3,0-6,2.7-6,6v8
			c0,3.3,2.7,6,6,6s6-2.7,6-6v-8C14-7.3,11.3-10,8-10L8-10z"/>
	</g>
	<path class="st4" d="M10,16H6v4c0,1.1,0.9,2,2,2h0c1.1,0,2-0.9,2-2V16z"/>
	<path class="st4" d="M20-2c-1.1,0-2,0.9-2,2v2v1.6c0,5.3-4,10-9.3,10.3C2.9,14.4-2,9.7-2,4V2V0c0-1.1-0.9-2-2-2h0c-1.1,0-2,0.9-2,2
		v3.6c0,7.5,5.8,14,13.3,14.4c8,0.4,14.7-6,14.7-14V0C22-1.1,21.1-2,20-2L20-2z"/>
</g>
<g id="Lager_57" class="st0">
	<path class="st1" d="M12,2c4.6,0,8.3,3.9,8,8.5c-0.3,4.2-4,7.5-8.3,7.5H0.2c-2.1,0-4-1.5-4.2-3.6C-4.2,12-2.3,10,0,10
		c0.1,0,0.2,0,0.3,0l1.5,0.1c0.9,0.1,1.8-0.5,2.1-1.3l0.5-1.5C5.6,4.2,8.6,2,12,2 M12-2C6.8-2,2.3,1.4,0.7,6C0.5,6,0.2,6,0,6
		c-4.4,0-8,3.6-8,8s3.6,8,8,8h12c6.6,0,12-5.4,12-12C24,3.4,18.6-2,12-2L12-2z"/>
</g>
<g id="Lager_58" class="st0">
	<g class="st1">
		<path d="M9.3,6.6C9,6.2,8.5,6,7.9,6c-0.5,0-1,0.2-1.4,0.6l-5.9,6c-0.8,0.8-0.8,2,0,2.8c0.8,0.8,2,0.8,2.8,0L6,12.8V15v5
			c0,1.1,0.9,2,2,2h0c1.1,0,2-0.9,2-2v-5v-1.9l0.3,0l2.2,2.2c0.7,0.7,1.8,0.9,2.6,0.3c1-0.7,1.1-2.2,0.3-3L9.3,6.6z"/>
		<path d="M24,3c0-0.8-0.1-1.5-0.2-2.3c-0.6-5.4-4.9-9.9-10.3-10.6C7.6-10.6,2.5-7.1,0.7-2C0.5-2,0.2-2,0-2c-4.4,0-8,3.6-8,8v2
			c0,1.1,0.9,2,2,2h0C-4.8,9.9-4,9-4,7.9V6.3c-0.2-2.4,1.7-4.4,4-4.4c0.1,0,0.2,0,0.3,0l1.5,0c0.9,0.1,1.7-0.3,2-1.2l0.4-1.2
			c1-3,3.7-5.2,6.9-5.5c4.9-0.4,9.1,3.7,8.8,8.6L20,3v5.1h0c0.1,1,1,1.9,2,1.9h0c1,0,1.8-0.9,1.9-1.9h0L24,3L24,3z"/>
	</g>
</g>
<g id="Lager_92" class="st0">
	<g class="st1">
		<path d="M24,3c0-0.8-0.1-1.5-0.2-2.3c-0.6-5.4-4.9-9.9-10.3-10.6C7.6-10.6,2.5-7.1,0.7-2C0.5-2,0.2-2,0-2c-4.4,0-8,3.6-8,8v2
			c0,1.1,0.9,2,2,2h0C-4.8,9.9-4,9-4,7.9V6.3c-0.2-2.4,1.7-4.4,4-4.4c0.1,0,0.2,0,0.3,0l1.5,0c0.9,0.1,1.7-0.3,2-1.2l0.4-1.2
			c1-3,3.7-5.2,6.9-5.5c4.9-0.4,9.1,3.7,8.8,8.6L20,3v5.1h0c0.1,1,1,1.9,2,1.9h0c1,0,1.8-0.9,1.9-1.9h0L24,3L24,3z"/>
	</g>
	<path class="st1" d="M4,14L4,14c-1.1,0-2-0.9-2-2V8c0-1.1,0.9-2,2-2h0c1.1,0,2,0.9,2,2v4C6,13.1,5.1,14,4,14z"/>
	<path class="st1" d="M4,26L4,26c-1.1,0-2-0.9-2-2v-4c0-1.1,0.9-2,2-2h0c1.1,0,2,0.9,2,2v4C6,25.1,5.1,26,4,26z"/>
	<path class="st1" d="M12,10L12,10c-1.1,0-2-0.9-2-2V4c0-1.1,0.9-2,2-2h0c1.1,0,2,0.9,2,2v4C14,9.1,13.1,10,12,10z"/>
	<path class="st1" d="M12,22L12,22c-1.1,0-2-0.9-2-2v-4c0-1.1,0.9-2,2-2h0c1.1,0,2,0.9,2,2v4C14,21.1,13.1,22,12,22z"/>
</g>
<g id="Lager_93" class="st0">
	<g id="Sun_3_x2C__Brightness_3" class="st1">
		<path class="st5" d="M24,4l-5,0c-2,1.8-0.8,4,1,4h5C27,6.2,25.7,4,24,4z"/>
		<g>
			<path class="st5" d="M8,4c0.1,0,0.3,0,0.4,0C9.2,4.2,9.8,4.8,10,5.6c0.2,0.8-0.1,1.4-0.4,1.7C9.2,7.7,8.6,8,8,8
				C7.9,8,7.7,8,7.6,8C6.8,7.8,6.2,7.2,6,6.4C5.9,5.6,6.2,5.1,6.5,4.7C6.8,4.3,7.4,4,8,4 M8,0C4.3,0,1.4,3.3,2.1,7.2
				c0.4,2.3,2.4,4.3,4.7,4.7C7.2,12,7.6,12,8,12c3.7,0,6.6-3.3,5.9-7.2c-0.4-2.3-2.4-4.3-4.7-4.7C8.8,0,8.4,0,8,0L8,0z"/>
		</g>
		<path class="st5" d="M24,8h-4c-1.1,0-2-0.9-2-2v0c0-1.1,0.9-2,2-2h4c1.1,0,2,0.9,2,2v0C26,7.1,25.1,8,24,8z"/>
		<path class="st5" d="M6,22v-4c0-1.1,0.9-2,2-2h0c1.1,0,2,0.9,2,2v4c0,1.1-0.9,2-2,2h0C6.9,24,6,23.1,6,22z"/>
		<path class="st5" d="M6-6v-4c0-1.1,0.9-2,2-2h0c1.1,0,2,0.9,2,2v4c0,1.1-0.9,2-2,2h0C6.9-4,6-4.9,6-6z"/>
		<path class="st5" d="M-4,8h-4c-1.1,0-2-0.9-2-2v0c0-1.1,0.9-2,2-2h4c1.1,0,2,0.9,2,2v0C-2,7.1-2.9,8-4,8z"/>
		<g>
			<path class="st5" d="M16.6-2.6L16.6-2.6c-0.7-0.7-0.7-1.9,0-2.7l2.2-2.2c0.7-0.7,1.9-0.7,2.7,0l0,0c0.7,0.7,0.7,1.9,0,2.7
				l-2.2,2.2C18.5-1.8,17.3-1.8,16.6-2.6z"/>
		</g>
		<g>
			<path class="st5" d="M16.6,14.6L16.6,14.6c0.7-0.7,1.9-0.7,2.7,0l2.2,2.2c0.7,0.7,0.7,1.9,0,2.7l0,0c-0.7,0.7-1.9,0.7-2.7,0
				l-2.2-2.2C15.8,16.5,15.8,15.3,16.6,14.6z"/>
		</g>
		<g>
			<path class="st5" d="M-5.4-7.4L-5.4-7.4c-0.7,0.7-0.7,1.9,0,2.7l2.2,2.2c0.7,0.7,1.9,0.7,2.7,0l0,0c0.7-0.7,0.7-1.9,0-2.7
				l-2.2-2.2C-3.5-8.2-4.7-8.2-5.4-7.4z"/>
		</g>
		<g>
			<path class="st5" d="M-0.6,14.6L-0.6,14.6c-0.7-0.7-1.9-0.7-2.7,0l-2.2,2.2c-0.7,0.7-0.7,1.9,0,2.7l0,0c0.7,0.7,1.9,0.7,2.7,0
				l2.2-2.2C0.2,16.5,0.2,15.3-0.6,14.6z"/>
		</g>
	</g>
</g>
<g id="Lager_94" class="st0">
	<path class="st4" d="M4.5-5.5C4-3.8,3.9-2.1,4.1-0.3C4.9,5,9,9.1,14.3,9.9C14.9,10,15.4,10,16,10c1.2,0,2.4-0.2,3.5-0.5
		c-1.4,4.4-5.3,7.9-10,8.4C9,18,8.5,18,8,18c-3.4,0-6.7-1.5-9-4c-2.3-2.6-3.3-6-2.9-9.5C-3.3-0.2,0.1-4.1,4.5-5.5 M8-10
		c-0.7,0-1.5,0-2.2,0.1C-1.3-8.9-7-3.1-7.9,4C-9.1,13.7-1.5,22,8,22c0.7,0,1.3,0,2-0.1c7.1-0.9,12.9-6.6,13.8-13.7
		C24,7.4,24,6.7,24,5.9C24,4.8,23,4,22,4c-0.4,0-0.8,0.1-1.2,0.4c-1.3,1-3,1.6-4.8,1.6c-0.4,0-0.8,0-1.1-0.1
		c-3.5-0.5-6.3-3.3-6.8-6.8C7.8-3.1,8.4-5.2,9.6-6.8C10.4-8.1,9.6-10,8-10C8-10,8-10,8-10L8-10z"/>
</g>
<g id="Lager_59" class="st0">
	<g class="st1">
		<path d="M6.7,21.4C7,21.8,7.5,22,8.1,22c0.5,0,1-0.2,1.4-0.6l5.9-6c0.8-0.8,0.8-2,0-2.8c-0.8-0.8-2-0.8-2.8,0L10,15.2V13V8
			c0-1.1-0.9-2-2-2h0C6.9,6,6,6.9,6,8v5v1.9l-0.3,0l-2.2-2.2c-0.7-0.7-1.8-0.9-2.6-0.3c-1,0.7-1.1,2.2-0.3,3L6.7,21.4z"/>
		<path d="M24,3c0-0.8-0.1-1.5-0.2-2.3c-0.6-5.4-4.9-9.9-10.3-10.6C7.6-10.6,2.5-7.1,0.7-2C0.5-2,0.2-2,0-2c-4.4,0-8,3.6-8,8v2
			c0,1.1,0.9,2,2,2h0C-4.8,9.9-4,9-4,7.9V6.3c-0.2-2.4,1.7-4.4,4-4.4c0.1,0,0.2,0,0.3,0l1.5,0c0.9,0.1,1.7-0.3,2-1.2l0.4-1.2
			c1-3,3.7-5.2,6.9-5.5c4.9-0.4,9.1,3.7,8.8,8.6L20,3v5.1h0c0.1,1,1,1.9,2,1.9h0c1,0,1.8-0.9,1.9-1.9h0L24,3L24,3z"/>
	</g>
</g>
<g id="Lager_60" class="st0">
	<g class="st1">
		<path d="M16-6v-2c0-1.1-0.9-2-2-2h0c-1.1,0-2,0.9-2,2v2H4v-2c0-1.1-0.9-2-2-2h0c-1.1,0-2,0.9-2,2v2h-6c-1.1,0-2,0.9-2,2v24
			c0,1.1,0.9,2,2,2h28c1.1,0,2-0.9,2-2V-4c0-1.1-0.9-2-2-2H16z M19,18H-3c-0.6,0-1-0.4-1-1V-1c0-0.6,0.4-1,1-1h5h0h12h0h5
			c0.6,0,1,0.4,1,1v18C20,17.6,19.6,18,19,18z"/>
		<path d="M13,10h-3V5V3c0-0.6-0.4-1-1-1H7H3C2.4,2,2,2.4,2,3v2c0,0.6,0.4,1,1,1h3v4H3c-0.6,0-1,0.4-1,1v2c0,0.6,0.4,1,1,1h4h2h4
			c0.6,0,1-0.4,1-1v-2C14,10.4,13.6,10,13,10z"/>
	</g>
	<path class="st4" d="M24-2H-8v-6c0-1.1,0.9-2,2-2h28c1.1,0,2,0.9,2,2V-2z"/>
</g>
<g id="Lager_61" class="st0">
	<circle class="st1" cx="2" cy="2" r="4"/>
	<g class="st1">
		<path d="M-1.4,21.4L-1.4,21.4c-0.8-0.8-0.8-2,0-2.8l16-16c0.8-0.8,2-0.8,2.8,0l0,0c0.8,0.8,0.8,2,0,2.8l-16,16
			C0.6,22.2-0.6,22.2-1.4,21.4z"/>
	</g>
	<g class="st1">
		<path d="M22.6,13.4l-8.1-8.1c-0.8-0.8-0.8-2,0-2.8l0,0c0.8-0.8,2-0.8,2.8,0l8.1,8.1c0.8,0.8,0.8,2,0,2.8l0,0
			C24.7,14.2,23.4,14.2,22.6,13.4z"/>
	</g>
	<path class="st1" d="M24-10H-8c-1.1,0-2,0.9-2,2v28c0,1.1,0.9,2,2,2h32c1.1,0,2-0.9,2-2V-8C26-9.1,25.1-10,24-10z M22,17
		c0,0.6-0.4,1-1,1H-4h-1c-0.6,0-1-0.4-1-1v-1V-5c0-0.6,0.4-1,1-1h26c0.6,0,1,0.4,1,1V17z"/>
</g>
<g id="Lager_62" class="st0">
	<g id="Checkmark_1" class="st1">
		<path class="st5" d="M7.3,11.7l-7-6.8c-0.4-0.4-0.4-1,0-1.4l1.4-1.4c0.4-0.4,1-0.4,1.4,0L8,6.9L18.9-3.7c0.4-0.4,1-0.4,1.4,0
			l1.4,1.4c0.4,0.4,0.4,1,0,1.4l-13,12.7C8.3,12.1,7.7,12.1,7.3,11.7z"/>
	</g>
	<path class="st1" d="M22,6L22,6c-1.1,0-2,0.9-2,2v9c0,0.6-0.4,1-1,1H-3c-0.6,0-1-0.4-1-1V-5c0-0.6,0.4-1,1-1H8h2h4c1.1,0,2-0.9,2-2
		v0c0-1.1-0.9-2-2-2h-4H8H-4h-2c-1.1,0-2,0.9-2,2v28c0,1.1,0.9,2,2,2h28c1.1,0,2-0.9,2-2V8C24,6.9,23.1,6,22,6z"/>
</g>
<g id="Lager_100" class="st0">
	<path class="st4" d="M22.3,3.7l-2.7-0.4c-0.3-1.3-0.8-2.5-1.5-3.7l1.5-2.1c0.6-0.8,0.5-1.9-0.2-2.6L19-5.4
		c-0.7-0.7-1.8-0.8-2.6-0.2l-2.1,1.5c-1.1-0.7-2.3-1.2-3.7-1.5l-0.4-2.7c-0.2-1-1-1.7-2-1.7H7.7c-1,0-1.8,0.7-2,1.7L5.3-5.7
		C4-5.4,2.7-4.9,1.6-4.2l-2.1-1.5C-1.2-6.2-2.3-6.1-3-5.4L-3.4-5c-0.7,0.7-0.8,1.8-0.2,2.6l1.5,2.1C-2.9,0.7-3.4,2-3.7,3.3l-2.7,0.4
		c-1,0.2-1.7,1-1.7,2v0.6c0,1,0.7,1.8,1.7,2l2.7,0.4c0.3,1.3,0.8,2.5,1.5,3.7l-1.5,2.1c-0.6,0.8-0.5,1.9,0.2,2.6l0.4,0.4
		c0.7,0.7,1.8,0.8,2.6,0.2l2.1-1.5c1.1,0.7,2.3,1.2,3.7,1.5l0.4,2.7c0.2,1,1,1.7,2,1.7h0.6c1,0,1.8-0.7,2-1.7l0.4-2.7
		c1.3-0.3,2.5-0.8,3.7-1.5l2.1,1.5c0.8,0.6,1.9,0.5,2.6-0.2l0.4-0.4c0.7-0.7,0.8-1.8,0.2-2.6l-1.5-2.1c0.7-1.1,1.2-2.3,1.5-3.7
		l2.7-0.4c1-0.2,1.7-1,1.7-2V5.7C24,4.7,23.3,3.9,22.3,3.7z M8,12c-3.3,0-6-2.7-6-6s2.7-6,6-6s6,2.7,6,6S11.3,12,8,12z"/>
</g>
<g id="Lager_64" class="st0">
	<g class="st1">
		<path d="M22.1-5L19-8.1c-1.2-1.2-2.9-1.9-4.5-1.9c-0.2,0-0.3,0-0.5,0v0H8.1H7.9H2v0c-0.2,0-0.3,0-0.5,0C-0.1-10-1.8-9.4-3-8.1
			L-6.1-5c-2.5,2.5-2.5,6.5,0,9L-6,4.1C-4.8,5.4-3.2,6-1.5,6C0.1,6,1.7,5.4,3,4.1l0.3-0.3C4.4,5.1,6.1,6,7.9,6h0.1
			c1.9,0,3.5-0.9,4.6-2.2L13,4.1C14.3,5.4,15.9,6,17.5,6c1.6,0,3.3-0.6,4.5-1.9L22.1,4C24.6,1.5,24.6-2.5,22.1-5z M19.3,1.2
			L19.3,1.2C18.8,1.8,18.2,2,17.5,2c-0.6,0-1.2-0.2-1.7-0.7L15.5,1l-2.8-2.8c-0.2-0.2-0.4-0.2-0.6,0L9.6,1.3C9.2,1.7,8.6,2,8.1,2
			H7.9C7.4,2,6.8,1.7,6.4,1.3L4-1.8C3.8-2,3.5-2,3.3-1.8L0.5,1L0.2,1.3C-0.3,1.8-0.9,2-1.5,2c-0.6,0-1.2-0.2-1.7-0.7l-0.1-0.1
			c-0.9-0.9-0.9-2.4,0-3.4l3.1-3.1C0.4-5.9,1.1-6,1.5-6C1.6-6,1.9-6,2-6h4h1.9h0.1H10h4c0.1,0,0.4,0,0.5,0c0.4,0,1.1,0.1,1.7,0.7
			l3.1,3.1C20.2-1.2,20.2,0.3,19.3,1.2z"/>
		<path d="M18,10L18,10c-1.1,0-2,0.9-2,2v5c0,0.6-0.4,1-1,1H1c-0.6,0-1-0.4-1-1v-5c0-1.1-0.9-2-2-2h0c-1.1,0-2,0.9-2,2v8
			c0,1.1,0.9,2,2,2h2h16h2c1.1,0,2-0.9,2-2v-8C20,10.9,19.1,10,18,10z"/>
	</g>
</g>
<g id="Lager_67" class="st0">
	<path class="st1" d="M8-10C0.3-10-6-3.8-6,3.9C-6,15,4,20.5,7,21.8C7.3,21.9,7.6,22,7.8,22c0.1,0,0.1,0,0.2,0c0.1,0,0.1,0,0.2,0
		c0.3,0,0.5-0.1,0.8-0.2c3-1.3,13-6.9,13-17.9C22-3.8,15.7-10,8-10z M8.2,17.8c-0.1,0-0.1-0.1-0.2-0.1c-0.1,0-0.1,0.1-0.2,0.1
		C5.3,16.5-2,12.1-2,3.9C-2-1.5,2.5-6,8-6c5.5,0,10,4.5,10,9.9C18,12.1,10.7,16.5,8.2,17.8z"/>
	<g class="st1">
		<path d="M8,0C5.8,0,4,1.8,4,4s1.8,4,4,4s4-1.8,4-4S10.2,0,8,0L8,0z"/>
	</g>
</g>
<g id="Lager_66" class="st0">
	<path class="st4" d="M8-1.7v15.3l-4.3-3l-0.5-0.4C2.9,10.1,2.5,10,2.1,10H1.4H-3c-0.6,0-1-0.4-1-1V3c0-0.6,0.4-1,1-1h4.4h0.6
		c0.4,0,0.8-0.1,1.1-0.4l0.5-0.4L8-1.7 M10.5-8C10.3-8,10-7.9,9.8-7.8L1.7-2.2C1.5-2.1,1.3-2,1.1-2H-6c-1.1,0-2,0.9-2,2v12
		c0,1.1,0.9,2,2,2h7.1c0.2,0,0.4,0.1,0.6,0.2l8.1,5.6c0.2,0.1,0.4,0.2,0.7,0.2c0.8,0,1.5-0.8,1.5-1.9V-6.1C12-7.2,11.3-8,10.5-8
		L10.5-8z"/>
	<g class="st1">
		<path class="st5" d="M16.3,13l-0.1-0.2c-0.5-0.9-0.2-2,0.6-2.6c2.2-1.6,3.4-3.2,3.3-4.5c-0.1-1.6-1.8-3.2-3.3-4.1
			c-0.8-0.5-1.1-1.5-0.7-2.4l0.1-0.2C16.8-1.9,18-2.3,19-1.7c2,1.3,4.9,3.8,5,7.3c0.1,2.9-1.6,5.6-5.1,8.1
			C18.1,14.3,16.9,14,16.3,13z"/>
	</g>
</g>
<g id="Lager_74" class="st0">
	<g class="st1">
		<path class="st5" d="M6,16H4.4C-0.4,15.2-4,11.1-4,6.1c0-1.7,0.4-3.2,1.1-4.6l1.2,1.7c0.9,1.2,2.8,0.9,3.2-0.6l1-3.5l1.3-4.8
			C4.3-6.9,3.4-8,2.2-8l-4.8,0l-3.6,0c-1.5,0-2.3,1.7-1.5,2.9L-5.4-2C-7,0.3-8,3.1-8,6.1c0,7,5.1,12.8,11.8,13.8c0.2,0,0.4,0,0.5,0
			v0H6c1.1,0,2-0.9,2-2v0C8,16.9,7.1,16,6,16z"/>
		<path class="st5" d="M21.4,14C23,11.7,24,8.9,24,5.9c0-7-5.1-12.8-11.8-13.8c-0.2,0-0.4,0-0.5,0v0H10C8.9-8,8-7.1,8-6v0
			c0,1.1,0.9,2,2,2h1.6C16.4-3.2,20,0.9,20,5.9c0,1.7-0.4,3.2-1.1,4.6l-1.2-1.7c-0.9-1.2-2.8-0.9-3.2,0.6l-1,3.5l-1.3,4.8
			c-0.3,1.2,0.6,2.3,1.8,2.3l4.8,0l3.6,0c1.5,0,2.3-1.7,1.5-2.9L21.4,14z"/>
	</g>
</g>
<g id="Lager_75" class="st0">
	<path class="st8" d="M8-10C-0.8-10-8-2.8-8,6s7.2,16,16,16s16-7.2,16-16S16.8-10,8-10z M8-6c2.6,0,5,0.8,6.9,2.2l-2.9,2.9
		C10.9-1.6,9.5-2,8-2S5.1-1.6,3.9-0.9L1.1-3.8C3-5.2,5.4-6,8-6z M12,6c0,0.2,0,0.4-0.1,0.6c-0.3,1.7-1.6,3.1-3.3,3.3
		C8.4,10,8.2,10,8,10c-0.2,0-0.4,0-0.6-0.1C5.7,9.7,4.3,8.3,4.1,6.6C4,6.4,4,6.2,4,6s0-0.4,0.1-0.6c0.3-1.7,1.6-3.1,3.3-3.3
		C7.6,2,7.8,2,8,2c0.2,0,0.4,0,0.6,0.1c1.7,0.3,3.1,1.6,3.3,3.3C12,5.6,12,5.8,12,6z M-4,6c0-2.6,0.8-5,2.2-6.9l2.9,2.9
		C0.4,3.1,0,4.5,0,6s0.4,2.9,1.1,4.1l-2.9,2.9C-3.2,11-4,8.6-4,6z M8,18c-2.6,0-5-0.8-6.9-2.2l2.9-2.9C5.1,13.6,6.5,14,8,14
		s2.9-0.4,4.1-1.1l2.9,2.9C13,17.2,10.6,18,8,18z M17.8,12.9l-2.9-2.9C15.6,8.9,16,7.5,16,6s-0.4-2.9-1.1-4.1l2.9-2.9
		C19.2,1,20,3.4,20,6S19.2,11,17.8,12.9z"/>
</g>
<g id="Lager_76" class="st0">
	<g class="st1">
		<path class="st5" d="M24-8c0-1.1-0.9-2-2-2h-3H-4h-2c-1.1,0-2,0.9-2,2v0c0,1.1,0.9,2,2,2h2v8v2v6v0c0,2.2,1.8,4,4,4h0h22
			c1.1,0,2-0.9,2-2v0c0-1.1-0.9-2-2-2H2c-1.1,0-2-0.9-2-2V6h22c1.1,0,2-0.9,2-2v-9.1V-6v-1V-8L24-8C24-8,24-8,24-8L24-8z M20,2H0v-8
			h19h1V2z"/>
		<circle class="st5" cx="2" cy="20" r="2"/>
		<circle class="st5" cx="18" cy="20" r="2"/>
	</g>
</g>
<g id="Lager_77" class="st0">
	<g class="st1">
		<path class="st5" d="M22-4c-0.2,0-0.4,0-0.6,0.1L16-1.9V-4c0-1.1-0.9-2-2-2H4H-6c-1.1,0-2,0.9-2,2v20c0,1.1,0.9,2,2,2H4h10
			c1.1,0,2-0.9,2-2v-2.1l5.4,1.9C21.6,16,21.8,16,22,16c1.1,0,2-0.9,2-2.2V-1.8C24-3.1,23.1-4,22-4z M12,1.1v9.9V13c0,0.6-0.4,1-1,1
			H4h-7c-0.6,0-1-0.4-1-1V-1c0-0.6,0.4-1,1-1h7h7c0.6,0,1,0.4,1,1V1.1z M20,11.1l-4-1.4V2.3l4-1.4V11.1z"/>
		<path class="st5" d="M5,2H1C0.4,2,0,2.4,0,3v2c0,0.6,0.4,1,1,1h4c0.6,0,1-0.4,1-1V3C6,2.4,5.6,2,5,2z"/>
	</g>
</g>
<g id="Layer_77" class="st0">
	<g class="st1">
		<path d="M1.6,7.4L1.6,7.4c-0.8-0.8-0.8-2,0-2.8L11.6-5.4c0.8-0.8,2-0.8,2.8,0l0,0c0.8,0.8,0.8,2,0,2.8L4.4,7.4
			C3.6,8.2,2.4,8.2,1.6,7.4z"/>
	</g>
	<g class="st1">
		<path d="M1.6,4.6L1.6,4.6c0.8-0.8,2-0.8,2.8,0l10.1,10.1c0.8,0.8,0.8,2,0,2.8l0,0c-0.8,0.8-2,0.8-2.8,0L1.6,7.4
			C0.8,6.6,0.8,5.4,1.6,4.6z"/>
	</g>
</g>
<g id="Lager_80" class="st0">
	<path class="st1" d="M16,12v5c0,0.6-0.4,1-1,1H-3c-0.6,0-1-0.4-1-1V-1c0-0.6,0.4-1,1-1h5c1.1,0,2-0.9,2-2v0c0-1.1-0.9-2-2-2h-7
		c-1.7,0-3,1.3-3,3v22c0,1.7,1.3,3,3,3h22c1.7,0,3-1.3,3-3v-7c0-1.1-0.9-2-2-2h0C16.9,10,16,10.9,16,12z"/>
	<path class="st1" d="M10-6h12c1.1,0,2-0.9,2-2v0c0-1.1-0.9-2-2-2H10c-1.1,0-2,0.9-2,2v0C8-6.9,8.9-6,10-6z"/>
	<path class="st1" d="M20-8V4c0,1.1,0.9,2,2,2h0c1.1,0,2-0.9,2-2V-8c0-1.1-0.9-2-2-2h0C20.9-10,20-9.1,20-8z"/>
	<g class="st1">
		<path d="M0.6,13.4L0.6,13.4c-0.8-0.8-0.8-2,0-2.8l20-20c0.8-0.8,2-0.8,2.8,0l0,0c0.8,0.8,0.8,2,0,2.8l-20,20
			C2.6,14.2,1.4,14.2,0.6,13.4z"/>
	</g>
</g>
<g id="Lager_83" class="st0">
	<g class="st1">
		<path d="M8-2c4.4,0,8.9,2.8,13,8c-4.1,5.2-8.6,8-13,8s-8.9-2.8-13-8C-0.9,0.8,3.6-2,8-2 M8-6C1.7-6-4.6-2-10,6l0,3l0-3
			c5.4,8,11.7,12,18,12s12.6-4,18-12l0,3l0-3C20.5-2,14.3-6,8-6L8-6z"/>
	</g>
	<circle class="st1" cx="8" cy="6" r="4"/>
</g>
<g id="Lager_84" class="st0">
	<path class="st1" d="M16.3-5.2l2.9,2.9L7.3,10H4V6.7L16.3-5.2 M16.4-10c-0.5,0-1,0.2-1.4,0.6L0,5v9h9v0L23.4-1c0.8-0.8,0.8-2,0-2.8
		l-5.6-5.6C17.4-9.8,16.9-10,16.4-10L16.4-10z"/>
	<path class="st1" d="M20,17c0,0.6-0.4,1-1,1H-3c-0.6,0-1-0.4-1-1V-5c0-0.6,0.4-1,1-1h5c1.1,0,2-0.9,2-2v0c0-1.1-0.9-2-2-2h-8
		c-1.1,0-2,0.9-2,2v28c0,1.1,0.9,2,2,2h28c1.1,0,2-0.9,2-2v-8c0-1.1-0.9-2-2-2h0c-1.1,0-2,0.9-2,2V17z"/>
</g>
<g id="Lager_85" class="st0">
	<path class="st1" d="M18,0h-6v0c0,0,0,0,0,0H8.8l6.6-6.6c0.8-0.8,0.8-2,0-2.8l0,0c-0.8-0.8-2-0.8-2.8,0L2.8,0.4
		C2.7,0.5,2.7,0.5,2.6,0.6l0,0c0,0,0,0,0,0l0,0C2.5,0.7,2.5,0.7,2.4,0.8c0,0,0,0-0.1,0.1C2.1,1.2,2,1.6,2,2c0,0,0,0,0,0s0,0,0,0
		c0,0.4,0.1,0.8,0.3,1.1c0,0,0,0,0.1,0.1c0.1,0.1,0.1,0.2,0.2,0.2l0,0c0,0,0,0,0,0l0,0c0.1,0.1,0.1,0.1,0.2,0.2l9.8,9.8
		c0.8,0.8,2,0.8,2.8,0l0,0c0.8-0.8,0.8-2,0-2.8L8.8,4H12c0,0,0,0,0,0v0h6c3.3,0,6,2.7,6,6v6c0,1.1,0.9,2,2,2s2-0.9,2-2v-6
		C28,4.5,23.5,0,18,0z"/>
	<g class="st1">
		<path d="M-7.4,3.4L-7.4,3.4c-0.8-0.8-0.8-2,0-2.8L2.6-9.4c0.8-0.8,2-0.8,2.8,0l0,0c0.8,0.8,0.8,2,0,2.8L-4.6,3.4
			C-5.4,4.2-6.6,4.2-7.4,3.4z"/>
	</g>
	<g class="st1">
		<path d="M-7.4,0.6L-7.4,0.6c0.8-0.8,2-0.8,2.8,0L5.4,10.6c0.8,0.8,0.8,2,0,2.8l0,0c-0.8,0.8-2,0.8-2.8,0L-7.4,3.4
			C-8.2,2.6-8.2,1.4-7.4,0.6z"/>
	</g>
</g>
<g id="Lager_86">
	<path class="st9" d="M15.7,7.3l-6-6c-0.4-0.4-1-0.4-1.4,0c-0.4,0.4-0.4,1,0,1.4L12.6,7H1C0.4,7,0,7.4,0,8s0.4,1,1,1h11.6l-4.3,4.3
		c-0.4,0.4-0.4,1,0,1.4c0.4,0.4,1,0.4,1.4,0l6-6C15.9,8.5,16,8.3,16,8C16,7.7,15.9,7.5,15.7,7.3z"/>
</g>
<g id="Lager_87" class="st0">
	<path class="st1" d="M-6,22L-6,22c-1.1,0-2-0.9-2-2V-8c0-1.1,0.9-2,2-2h0c1.1,0,2,0.9,2,2v28C-4,21.1-4.9,22-6,22z"/>
	<path class="st1" d="M22-10H2c-1.1,0-2,0.9-2,2V8c0,1.1,0.9,2,2,2h20c1.1,0,2-0.9,2-2V-8C24-9.1,23.1-10,22-10z M20,5
		c0,0.6-0.4,1-1,1H5C4.4,6,4,5.6,4,5V-5c0-0.6,0.4-1,1-1h14c0.6,0,1,0.4,1,1V5z"/>
</g>
<g id="Lager_88" class="st0">
	<path class="st1" d="M4-6c4.4,0,8,3.6,8,8c0,1.7-0.5,3.3-1.5,4.6L9.7,7.7L8.6,8.5C7.3,9.5,5.7,10,4,10c-4.4,0-8-3.6-8-8S-0.4-6,4-6
		 M4-10C-2.6-10-8-4.6-8,2c0,6.6,5.4,12,12,12c2.6,0,5-0.8,6.9-2.2l9.6,9.6C21,21.8,21.5,22,22,22s1-0.2,1.4-0.6
		c0.8-0.8,0.8-2.1,0-2.8l-9.6-9.6C15.2,7,16,4.6,16,2C16-4.6,10.6-10,4-10L4-10z"/>
</g>
<g id="Lager_89" class="st0">
	<g class="st1">
		<path d="M17.6,4l-3.2,14H1.6L-1.6,4H17.6 M19.8,0H-3.8C-5.2,0-6.2,1.3-6,2.7l4,17.4c0.2,1.1,1.1,1.9,2.1,1.9h15.8
			c1.1,0,2-0.8,2.1-1.9l4-17.4C22.2,1.3,21.2,0,19.8,0L19.8,0z"/>
	</g>
	<path class="st1" d="M24-4H-8c-1.1,0-2-0.9-2-2v0c0-1.1,0.9-2,2-2h32c1.1,0,2,0.9,2,2v0C26-4.9,25.1-4,24-4z"/>
	<path class="st1" d="M12-8H4v0c0-1.1,0.9-2,2-2h4C11.1-10,12-9.1,12-8L12-8z"/>
</g>
<g id="Lager_90" class="st0">
	<g class="st1">
		<path d="M18,2v16H-2V2H18 M20-2H-4c-1.1,0-2,0.9-2,2v20c0,1.1,0.9,2,2,2h24c1.1,0,2-0.9,2-2V0C22-1.1,21.1-2,20-2L20-2z"/>
	</g>
	<g class="st1">
		<path d="M12-6v4H4v-4H12 M14-10H2c-1.1,0-2,0.9-2,2V2h16V-8C16-9.1,15.1-10,14-10L14-10z"/>
	</g>
	<path class="st1" d="M26,2h-36V0c0-1.1,0.9-2,2-2h32c1.1,0,2,0.9,2,2V2z"/>
	<path class="st1" d="M5,14H3c-0.6,0-1-0.4-1-1V7c0-0.6,0.4-1,1-1h2c0.6,0,1,0.4,1,1v6C6,13.6,5.6,14,5,14z"/>
	<path class="st1" d="M13,14h-2c-0.6,0-1-0.4-1-1V7c0-0.6,0.4-1,1-1h2c0.6,0,1,0.4,1,1v6C14,13.6,13.6,14,13,14z"/>
</g>
<g id="Lager_91" class="st0">
	<path class="st1" d="M22-6H-6c-1.1,0-2,0.9-2,2v3.6V16c0,1.1,0.9,2,2,2h28c1.1,0,2-0.9,2-2V-0.4V-4C24-5.1,23.1-6,22-6z M19.2-2
		L8,5.7L-3.2-2H19.2z M20,13c0,0.6-0.4,1-1,1H-3c-0.6,0-1-0.4-1-1V2.3L7,9.7C7.3,9.9,7.7,10,8,10c0.3,0,0.7-0.1,1-0.3l11-7.4V13z"/>
</g>
<g id="Lager_101" class="st0">
	<path class="st10" d="M30-4"/>
	<path class="st1" d="M6.8-6L18.5,5.8c0.4,0.4,0.4,1,0,1.4l-9.3,9.3c-0.4,0.4-1,0.4-1.4,0L-4,4.8V-5c0-0.6,0.4-1,1-1h3.2H6.8
		 M7.6-10H0.2h-6.2C-7.1-10-8-9.1-8-7.9V5.6C-8,6.1-7.8,6.6-7.4,7L7,21.4C7.4,21.8,7.9,22,8.5,22c0.5,0,1.1-0.2,1.5-0.6L23.4,7.9
		c0.8-0.8,0.8-2.1,0-2.9L9-9.4C8.6-9.8,8.1-10,7.6-10L7.6-10z"/>
	<circle class="st1" cx="3" cy="1" r="3"/>
</g>
<g id="Lager_102" class="st0">
	<path class="st4" d="M18-6c2.8,0,5,2.7,5,6c0,6.3-7.6,11.4-12,13.6C6.6,11.4-1,6.3-1,0c0-3.3,2.2-6,5-6c1.3,0,2.7,0.9,3.8,2.4
		l1.6,1.8c0.8,1.1,2.4,1.1,3.2,0l1.6-1.8C15.3-5.1,16.7-6,18-6 M18-10c-2.8,0-5.4,1.7-7,4c-1.6-2.3-4.2-4-7-4c-5,0-9,4.5-9,10
		c0,11.4,16,18,16,18s16-6.6,16-18C27-5.5,23-10,18-10L18-10z"/>
</g>
<g id="Lager_104" class="st0">
	<path class="st1" d="M14-6H-6c-1.1,0-2,0.9-2,2v20c0,1.1,0.9,2,2,2h20c1.1,0,2-0.9,2-2V-4C16-5.1,15.1-6,14-6z M11,14H-3
		c-0.6,0-1-0.4-1-1V-1c0-0.6,0.4-1,1-1h13h1c0.6,0,1,0.4,1,1v1v13C12,13.6,11.6,14,11,14z"/>
	<path class="st1" d="M24,1v10l-8-3.3V4.3L24,1 M26-4c-0.2,0-0.5,0-0.7,0.1L12,1.6v8.8l13.3,5.5C25.5,16,25.8,16,26,16
		c1.1,0,2-0.9,2-2.2V-1.8C28-3.1,27.1-4,26-4L26-4z"/>
</g>
<g id="Lager_105" class="st0">
	<g class="st1">
		<g>
			<path class="st5" d="M-3,8C-3.1,8-3.1,8-3,8C-3,8-3,8-3,8L-3,8L-3,8z"/>
		</g>
		<g>
			<path class="st5" d="M9,14H7H5v4H3c-2.2,0-4,1.8-4,4h16c0-2.2-1.8-4-4-4H9V14L9,14z"/>
		</g>
		<g>
			<path class="st5" d="M17,8L17,8C17,8,17,8,17,8C17.1,8,17.1,8,17,8L17,8z"/>
		</g>
		<g>
			<path class="st5" d="M13-6v4v6v1.2l-0.5,1.1C11.5,8.6,9.4,10,7,10S2.5,8.6,1.5,6.4L1,5.2V4v-6v-4H13 M15-10H-1c-1.1,0-2,0.9-2,2
				v2h-6c-1.1,0-2,0.9-2,2v4c0,3.2,2.1,8,8,8h0.8c1.5,3.5,5.1,6,9.2,6s7.6-2.5,9.2-6H17c5.9,0,8-4.8,8-8v-4c0-1.1-0.9-2-2-2h-6v-2
				C17-9.1,16.1-10,15-10L15-10z M17,4v-6h4v2C21,0.7,20.8,4,17,4L17,4z M-3,4c-3.7,0-4-3.1-4-4v-2h4V4L-3,4z"/>
		</g>
	</g>
</g>
<g id="Lager_106" class="st0">
	<g class="st1">
		<path class="st11" d="M19.7-6l-1.9,8H0v-8H19.7 M21-10H-2h-2h-2c-1.1,0-2,0.9-2,2s0.9,2,2,2h2V6h22.6c1.4,0,2.6-1,2.9-2.3l2.4-10
			C24.4-8.2,23-10,21-10L21-10z"/>
	</g>
	<path class="st12" d="M0,10V6h-4v5c0,1.7,1.3,3,3,3h0h1h20c1.1,0,2-0.9,2-2v0c0-1.1-0.9-2-2-2H0z"/>
	<circle class="st12" cx="1" cy="19" r="3"/>
	<circle class="st12" cx="17" cy="19" r="3"/>
</g>
<g id="Lager_107" class="st0">
	<g class="st1">
		<path class="st5" d="M8-4c4.7,0,9.6,3.6,13.4,10C17.6,12.4,12.7,16,8,16C3.3,16-1.6,12.4-5.4,6C-1.6-0.4,3.3-4,8-4 M8-8
			C1.5-8-5.1-3.3-10,6l0,0h0c4.9,9.3,11.5,14,18,14s13-4.7,18-14v0C21-3.3,14.5-8,8-8L8-8z"/>
	</g>
	<circle class="st4" cx="8" cy="6" r="4"/>
</g>
<g id="Lager_108" class="st0">
	<circle class="st4" cx="8" cy="-4" r="6"/>
	<path class="st4" d="M8,14L8,14c-1.1,0-2-0.9-2-2V0h4v12C10,13.1,9.1,14,8,14z"/>
	<path class="st4" d="M22,2h-4c-1.1,0-2,0.9-2,2v0c0,1.1,0.9,2,2,2h1c0.6,0,1,0.4,1,1v10c0,0.6-0.4,1-1,1H-3c-0.6,0-1-0.4-1-1V7
		c0-0.6,0.4-1,1-1h1c1.1,0,2-0.9,2-2v0c0-1.1-0.9-2-2-2h-4c-1.1,0-2,0.9-2,2v16c0,1.1,0.9,2,2,2h28c1.1,0,2-0.9,2-2V4
		C24,2.9,23.1,2,22,2z"/>
</g>
<g id="Lager_110" class="st0">
	<path class="st4" d="M14,22H2v-1c0-1.7,1.3-3,3-3h6c1.7,0,3,1.3,3,3V22z"/>
	<path class="st4" d="M22-10H-6c-1.1,0-2,0.9-2,2v24c0,1.1,0.9,2,2,2h28c1.1,0,2-0.9,2-2V-8C24-9.1,23.1-10,22-10z M20,13
		c0,0.6-0.4,1-1,1H-3c-0.6,0-1-0.4-1-1V-5c0-0.6,0.4-1,1-1h19h3c0.6,0,1,0.4,1,1v2v1.9V13z"/>
</g>
<g id="Lager_111" class="st0">
	<rect x="0" y="-6" class="st1" width="4" height="8"/>
	<rect x="-4" y="-2" class="st1" width="24" height="4"/>
	<path class="st1" d="M22-10H-6c-1.1,0-2,0.9-2,2v28c0,1.1,0.9,2,2,2h28c1.1,0,2-0.9,2-2V-8C24-9.1,23.1-10,22-10z M20,17
		c0,0.6-0.4,1-1,1H-3c-0.6,0-1-0.4-1-1V-5c0-0.6,0.4-1,1-1h21h2v2V17z"/>
</g>
<g id="Lager_112" class="st0">
	<path class="st1" d="M26-10H6c-1.1,0-2,0.9-2,2v6H-6c-1.1,0-2,0.9-2,2v20c0,1.1,0.9,2,2,2h20c1.1,0,2-0.9,2-2v-6h10
		c1.1,0,2-0.9,2-2V-8C28-9.1,27.1-10,26-10z M12,4v4v2v4v1v2c0,0.6-0.4,1-1,1H-3c-0.6,0-1-0.4-1-1V3c0-0.6,0.4-1,1-1h6h1h4h2h1
		c0.6,0,1,0.4,1,1V4z M24-4V9c0,0.6-0.4,1-1,1h-7V0c0-1.1-0.9-2-2-2H8v-3c0-0.6,0.4-1,1-1h13h1c0.6,0,1,0.4,1,1V-4z"/>
</g>
<g id="Lager_113" class="st0">
	<g class="st1">
		<path d="M14-4c5.5,0,10,4.5,10,10c0,5.5-4.5,10-10,10H2C-3.5,16-8,11.5-8,6C-8,0.5-3.5-4,2-4H14 M14-8H2C-5.7-8-12-1.7-12,6v0
			c0,7.7,6.3,14,14,14h12c7.7,0,14-6.3,14-14v0C28-1.7,21.7-8,14-8L14-8z"/>
	</g>
	<circle class="st1" cx="2" cy="6" r="6"/>
</g>
<g id="Lager_114" class="st0">
	<path class="st1" d="M8-10c-9.9,0-18,8.1-18,18c0,1.1,0.9,2,2,2s2-0.9,2-2C-6,0.3,0.3-6,8-6S22,0.3,22,8c0,1.1,0.9,2,2,2s2-0.9,2-2
		C26-1.9,17.9-10,8-10z"/>
	<g class="st1">
		<path d="M8,10c2.2,0,4,1.8,4,4s-1.8,4-4,4s-4-1.8-4-4S5.8,10,8,10 M8,6c-4.4,0-8,3.6-8,8s3.6,8,8,8s8-3.6,8-8S12.4,6,8,6L8,6z"/>
	</g>
	<path class="st1" d="M8-2L8-2C6.9-2,6-1.1,6,0v9.1h4V0C10-1.1,9.1-2,8-2z"/>
</g>
<g id="Lager_115" class="st0">
	<path class="st4" d="M6-2.2L19.8,6L6,14.2V-2.2 M4-8C2.9-8,2-7.1,2-6v24c0,1.1,0.9,2,2,2L25.1,7.5C25.7,7.2,26,6.6,26,6
		c0-0.6-0.3-1.2-0.9-1.5L4-8L4-8z"/>
	<path class="st4" d="M2,9.4l-8,4.7V-2.2l8,4.7V-2h0.2L-8-8c-1.1,0-2,0.9-2,2v24c0,1.1,0.9,2,2,2l10-5.9V9.4z"/>
	<path class="st4" d="M24,20L24,20c-1.1,0-2-0.9-2-2V-6c0-1.1,0.9-2,2-2h0c1.1,0,2,0.9,2,2v24C26,19.1,25.1,20,24,20z"/>
</g>
<g id="Lager_116" class="st0">
	<g class="st1">
		<path class="st5" d="M22-4v20H-6V-4H22 M24-8H-8c-1.1,0-2,0.9-2,2v24c0,1.1,0.9,2,2,2h32c1.1,0,2-0.9,2-2V-6C26-7.1,25.1-8,24-8
			L24-8z"/>
	</g>
	<rect x="-2" y="-8" class="st6" width="4" height="28"/>
	<rect x="14" y="-8" class="st6" width="4" height="28"/>
	<rect x="-6" y="0" class="st6" width="4" height="4"/>
	<rect x="-6" y="8" class="st6" width="4" height="4"/>
	<rect x="18" y="0" class="st6" width="4" height="4"/>
	<rect x="18" y="8" class="st6" width="4" height="4"/>
</g>
<g id="Lager_98" class="st0">
	<path class="st4" d="M8-5.8l13.6,9.6C21.8,4,22,4.3,22,4.6V17c0,0.6-0.4,1-1,1H-5c-0.6,0-1-0.4-1-1V4.6C-6,4.3-5.8,4-5.6,3.8L8-5.8
		 M8.4-10H7.6c-0.4,0-0.8,0.1-1.2,0.4l-15.6,11C-9.7,1.8-10,2.4-10,3v17c0,1.1,0.9,2,2,2h32c1.1,0,2-0.9,2-2V3
		c0-0.6-0.3-1.3-0.8-1.6L9.5-9.6C9.2-9.9,8.8-10,8.4-10L8.4-10z"/>
	<path class="st6" d="M5,6h-6c-0.6,0-1,0.4-1,1v15h8V7C6,6.4,5.6,6,5,6z"/>
	<path class="st6" d="M17,10h-6c-0.6,0-1-0.4-1-1V7c0-0.6,0.4-1,1-1h6c0.6,0,1,0.4,1,1v2C18,9.6,17.6,10,17,10z"/>
</g>
</svg>
